<?xml version="1.0" encoding="iso-8859-1"?>
<!-- Generator: Adobe Illustrator 17.1.0, SVG Export Plug-In . SVG Version: 6.00 Build 0)  -->
<!DOCTYPE svg PUBLIC "-//W3C//DTD SVG 1.1//EN" "http://www.w3.org/Graphics/SVG/1.1/DTD/svg11.dtd">
<svg version="1.1" id="Layer_1" xmlns="http://www.w3.org/2000/svg" xmlns:xlink="http://www.w3.org/1999/xlink" x="0px" y="0px"
	 viewBox="0 0 50 50" style="enable-background:new 0 0 50 50;" xml:space="preserve">
<path style="fill:#6B7280;" d="M48.159,42.144l-14.83-14.452c1.845-2.816,2.927-6.177,2.927-9.794C36.256,8.013,28.243,0,18.358,0
	S0.459,8.013,0.459,17.898c0,9.885,8.013,17.898,17.898,17.898c2.936,0,5.699-0.721,8.146-1.974L41.77,48.701
	C42.659,49.568,43.811,50,44.964,50c1.191,0,2.38-0.463,3.277-1.383C50.005,46.806,49.969,43.909,48.159,42.144z M27.491,25.252
	c-0.823,1.022-1.819,1.898-2.937,2.596c-1.8,1.123-3.918,1.783-6.196,1.783c-6.478,0-11.73-5.253-11.73-11.732
	c0-6.478,5.253-11.73,11.73-11.73c6.479,0,11.73,5.253,11.73,11.73C30.088,20.685,29.113,23.24,27.491,25.252z"/>
</svg>
